<svg xmlns="http://www.w3.org/2000/svg" width="319" height="140" viewBox="0 0 319 140"><defs><linearGradient id="a" x1="-37.744%" x2="130.23%" y1="134.947%" y2="-27.689%"><stop offset="0%" stop-color="#00AEFF"/><stop offset="100%" stop-color="#3369E7"/></linearGradient></defs><g fill="none"><path fill="url(#a)" d="M9.744 0h54.512C69.622 0 74 4.354 74 9.741v54.518C74 69.623 69.644 74 64.256 74H9.744C4.378 74 0 69.646 0 64.259V9.719C0 4.354 4.356 0 9.744 0z" transform="translate(10 21)"/><path fill="#FFF" d="M48.548 40.164c-11.629 0-21.063 9.284-21.063 20.749 0 11.465 9.434 20.726 21.063 20.726s21.063-9.284 21.063-20.749c0-11.465-9.411-20.726-21.063-20.726zm0 35.353c-8.19 0-14.841-6.545-14.841-14.604 0-8.06 6.651-14.604 14.841-14.604S63.39 52.854 63.39 60.913s-6.63 14.604-14.842 14.604zm0-26.225v10.886c0 .312.34.534.634.378L59 55.547c.227-.11.295-.378.181-.6a12.245 12.245 0 0 0-10.18-6.078c-.227 0-.453.178-.453.423zM34.793 41.3l-1.29-1.27a3.26 3.26 0 0 0-4.57 0l-1.538 1.514a3.135 3.135 0 0 0 0 4.497l1.267 1.247c.203.2.497.156.678-.044a24.615 24.615 0 0 1 2.466-2.85 23.172 23.172 0 0 1 2.919-2.449c.226-.133.249-.445.068-.645zm20.655-3.295v-2.516c0-1.759-1.447-3.183-3.235-3.183H44.68c-1.787 0-3.235 1.424-3.235 3.183v2.583c0 .289.272.49.566.422a23.934 23.934 0 0 1 6.56-.912c2.15 0 4.277.29 6.335.846a.437.437 0 0 0 .543-.423z"/><path fill="#182359" d="M195.016 76.81c0 5.936-1.528 10.27-4.607 13.027-3.08 2.757-7.777 4.135-14.115 4.135-2.315 0-7.125-.444-10.969-1.29l1.416-6.89c3.214.666 7.462.844 9.687.844 3.53 0 6.047-.711 7.553-2.134 1.505-1.423 2.247-3.535 2.247-6.336v-1.423c-.876.423-2.023.845-3.439 1.29-1.416.422-3.057.644-4.9.644-2.427 0-4.63-.378-6.63-1.133-2-.756-3.731-1.868-5.147-3.335-1.416-1.467-2.54-3.312-3.327-5.513-.786-2.201-1.19-6.136-1.19-9.026 0-2.712.426-6.114 1.258-8.381.854-2.268 2.068-4.224 3.708-5.847 1.619-1.623 3.597-2.868 5.912-3.78a21.865 21.865 0 0 1 7.979-1.489c2.854 0 5.484.356 8.046.778 2.563.423 4.743.867 6.518 1.357V76.81zm-24.431-17.162c0 3.646.809 7.692 2.427 9.381 1.618 1.69 3.709 2.534 6.271 2.534 1.393 0 2.72-.2 3.956-.578 1.236-.377 2.225-.822 3.012-1.356V48.043c-.63-.133-3.26-.667-5.8-.733-3.19-.09-5.618 1.2-7.327 3.267-1.685 2.068-2.54 5.692-2.54 9.07zm66.147 0c0 2.934-.427 5.157-1.303 7.58-.877 2.424-2.113 4.491-3.709 6.203a16.33 16.33 0 0 1-5.754 3.98c-2.247.933-5.709 1.466-7.44 1.466-1.73-.022-5.169-.51-7.394-1.467-2.225-.956-4.136-2.267-5.732-3.98-1.595-1.71-2.832-3.778-3.73-6.202-.9-2.423-1.35-4.646-1.35-7.58 0-2.935.405-5.758 1.304-8.16.9-2.4 2.158-4.445 3.776-6.157 1.619-1.712 3.552-3.023 5.754-3.957 2.225-.934 4.675-1.378 7.328-1.378 2.652 0 5.102.466 7.35 1.378 2.247.934 4.18 2.245 5.753 3.957 1.596 1.712 2.832 3.757 3.731 6.158.944 2.4 1.416 5.224 1.416 8.159zm-8.99.022c0-3.757-.832-6.892-2.45-9.07-1.618-2.201-3.889-3.29-6.788-3.29-2.9 0-5.17 1.089-6.788 3.29-1.618 2.2-2.405 5.313-2.405 9.07 0 3.801.81 6.358 2.428 8.559 1.618 2.223 3.888 3.312 6.788 3.312 2.899 0 5.169-1.111 6.787-3.312 1.619-2.223 2.428-4.758 2.428-8.56zm28.567 19.208c-14.407.066-14.407-11.516-14.407-13.361l-.023-41.083 8.789-1.378v40.816c0 1.044 0 7.67 5.641 7.691v7.315zm15.486 0h-8.833V41.351l8.833-1.379v38.904zm-4.428-43.017c2.945 0 5.35-2.357 5.35-5.27 0-2.911-2.383-5.268-5.35-5.268-2.966 0-5.349 2.357-5.349 5.269s2.405 5.269 5.35 5.269zm26.388 4.135c2.899 0 5.349.355 7.327 1.067 1.978.711 3.574 1.711 4.742 2.979 1.169 1.267 2 3 2.495 4.824.517 1.823.764 3.823.764 6.024v22.365c-1.348.289-3.394.622-6.136 1.022s-5.821.6-9.237.6c-2.27 0-4.36-.222-6.226-.644-1.888-.423-3.484-1.112-4.833-2.068-1.326-.956-2.36-2.178-3.124-3.69-.742-1.512-1.124-3.646-1.124-5.87 0-2.133.427-3.49 1.259-4.957.854-1.467 2-2.667 3.439-3.601 1.46-.934 3.124-1.6 5.034-2 1.91-.4 3.911-.601 5.98-.601.966 0 1.977.067 3.056.178 1.079.111 2.203.311 3.416.6v-1.423c0-1-.112-1.956-.36-2.845a6.08 6.08 0 0 0-1.258-2.379c-.607-.69-1.394-1.223-2.382-1.6-.99-.378-2.248-.667-3.754-.667-2.023 0-3.866.244-5.552.533-1.685.289-3.079.623-4.135 1l-1.057-7.136c1.102-.378 2.742-.756 4.855-1.133 2.113-.378 4.383-.578 6.81-.578zm.741 31.545c2.697 0 4.698-.155 6.091-.422V62.27a18.107 18.107 0 0 0-2.112-.422 21.179 21.179 0 0 0-3.057-.223c-.967 0-1.956.067-2.945.223a8.9 8.9 0 0 0-2.674.778c-.787.378-1.439.911-1.91 1.6-.495.69-.72 1.09-.72 2.134 0 2.046.72 3.224 2.023 4.002 1.326.8 3.08 1.178 5.304 1.178zM120.935 40.218c2.9 0 5.349.356 7.327 1.067 1.978.711 3.574 1.712 4.742 2.979 1.192 1.29 2 3.001 2.495 4.824.517 1.823.764 3.824.764 6.025v22.364c-1.348.289-3.393.622-6.136 1.022-2.742.4-5.82.6-9.237.6-2.27 0-4.36-.222-6.226-.644-1.888-.422-3.484-1.112-4.833-2.067-1.326-.956-2.36-2.18-3.124-3.69-.742-1.512-1.124-3.647-1.124-5.87 0-2.134.427-3.49 1.259-4.957.854-1.467 2-2.668 3.439-3.602 1.46-.933 3.124-1.6 5.035-2 1.91-.4 3.91-.6 5.978-.6.967 0 1.978.066 3.057.177 1.056.111 2.203.311 3.416.6v-1.422c0-1-.112-1.957-.36-2.846a6.08 6.08 0 0 0-1.258-2.379c-.607-.689-1.393-1.222-2.382-1.6-.99-.378-2.248-.667-3.754-.667-2.023 0-3.866.244-5.552.533-1.685.29-3.079.623-4.135 1l-1.057-7.135c1.102-.378 2.743-.756 4.855-1.134 2.113-.4 4.383-.578 6.81-.578zm.764 31.568c2.697 0 4.697-.156 6.09-.423v-8.848a18.107 18.107 0 0 0-2.112-.422 21.179 21.179 0 0 0-3.057-.222c-.966 0-1.955.066-2.944.222-.989.133-1.888.4-2.675.778-.786.378-1.438.912-1.91 1.6-.495.69-.72 1.09-.72 2.135 0 2.045.72 3.223 2.023 4.002 1.304.778 3.08 1.178 5.305 1.178zm35.625 7.092c-14.408.066-14.408-11.516-14.408-13.361l-.022-41.083 8.788-1.378v40.816c0 1.044 0 7.67 5.642 7.691v7.315z"/></g></svg>