<svg xmlns="http://www.w3.org/2000/svg" width="188" height="140" viewBox="0 0 188 140"><g fill="none" fill-rule="evenodd"><path fill="#252F3E" fill-rule="nonzero" d="M57.213 65.35c0 2.06.223 3.73.612 4.954a29.799 29.799 0 0 0 1.781 4.008c.278.445.39.89.39 1.28 0 .557-.334 1.113-1.058 1.67L55.432 79.6c-.5.334-1.001.5-1.447.5-.556 0-1.113-.277-1.67-.778a17.22 17.22 0 0 1-2.003-2.617 43.095 43.095 0 0 1-1.725-3.284c-4.34 5.121-9.795 7.682-16.362 7.682-4.674 0-8.403-1.336-11.13-4.008-2.727-2.672-4.118-6.235-4.118-10.688 0-4.731 1.67-8.572 5.064-11.467 3.395-2.894 7.903-4.342 13.635-4.342 1.892 0 3.84.167 5.899.446 2.06.278 4.174.723 6.4 1.224v-4.063c0-4.231-.89-7.181-2.616-8.907-1.78-1.726-4.786-2.56-9.071-2.56-1.948 0-3.951.222-6.01.723-2.06.501-4.063 1.113-6.01 1.893-.891.39-1.56.612-1.949.723-.39.112-.667.167-.89.167-.78 0-1.169-.556-1.169-1.725V35.79c0-.89.112-1.558.39-1.948.278-.39.779-.78 1.558-1.17 1.948-1.001 4.285-1.836 7.012-2.504 2.727-.724 5.621-1.058 8.682-1.058 6.623 0 11.464 1.503 14.58 4.51 3.062 3.005 4.62 7.57 4.62 13.693V65.35h.111zm-22.595 8.46c1.837 0 3.73-.333 5.733-1.001 2.003-.668 3.784-1.893 5.287-3.563.89-1.057 1.558-2.226 1.892-3.562.334-1.336.556-2.95.556-4.843v-2.338a46.466 46.466 0 0 0-5.12-.947 41.925 41.925 0 0 0-5.231-.334c-3.729 0-6.456.724-8.292 2.227-1.837 1.503-2.727 3.618-2.727 6.402 0 2.616.668 4.564 2.059 5.9 1.336 1.392 3.283 2.06 5.843 2.06zm44.689 6.013c-1.002 0-1.67-.167-2.115-.557-.445-.334-.835-1.113-1.168-2.171l-13.079-43.03c-.334-1.113-.5-1.836-.5-2.226 0-.89.445-1.392 1.335-1.392h5.454c1.057 0 1.78.167 2.17.557.446.334.78 1.113 1.113 2.17l9.35 36.851 8.682-36.85c.278-1.113.612-1.837 1.057-2.171.445-.334 1.224-.557 2.226-.557h4.452c1.058 0 1.781.167 2.226.557.446.334.835 1.113 1.058 2.17l8.793 37.297 9.628-37.296c.334-1.113.723-1.837 1.113-2.171.445-.334 1.168-.557 2.17-.557h5.176c.89 0 1.391.446 1.391 1.392 0 .278-.056.557-.111.89-.056.335-.167.78-.39 1.392l-13.412 43.03c-.334 1.113-.723 1.837-1.169 2.17-.445.335-1.168.557-2.114.557h-4.786c-1.058 0-1.781-.167-2.227-.556-.445-.39-.834-1.114-1.057-2.227l-8.626-35.904-8.57 35.848c-.279 1.114-.613 1.837-1.058 2.227-.445.39-1.224.557-2.226.557h-4.786zm71.513 1.503a36.82 36.82 0 0 1-8.57-1.002c-2.783-.668-4.954-1.392-6.4-2.227-.89-.501-1.503-1.058-1.726-1.559a3.93 3.93 0 0 1-.334-1.558v-2.84c0-1.168.446-1.725 1.28-1.725.334 0 .668.056 1.002.167.334.111.835.334 1.391.557a30.266 30.266 0 0 0 6.122 1.948c2.226.445 4.397.668 6.623.668 3.506 0 6.233-.612 8.125-1.837 1.892-1.225 2.894-3.006 2.894-5.288 0-1.559-.501-2.84-1.503-3.897-1.001-1.057-2.894-2.004-5.62-2.894l-8.07-2.505c-4.063-1.28-7.068-3.173-8.904-5.678-1.837-2.45-2.783-5.177-2.783-8.072 0-2.338.5-4.397 1.503-6.179 1.001-1.78 2.337-3.34 4.006-4.564 1.67-1.28 3.562-2.227 5.788-2.895 2.226-.668 4.564-.946 7.012-.946 1.225 0 2.505.056 3.73.223 1.28.167 2.448.39 3.617.612 1.113.278 2.17.557 3.172.89 1.001.335 1.78.669 2.337 1.003.78.445 1.336.89 1.67 1.391.334.446.5 1.058.5 1.837v2.616c0 1.17-.445 1.782-1.28 1.782-.445 0-1.168-.223-2.114-.668-3.172-1.448-6.734-2.171-10.685-2.171-3.173 0-5.677.5-7.402 1.558-1.725 1.058-2.616 2.672-2.616 4.955 0 1.558.557 2.894 1.67 3.952 1.113 1.058 3.172 2.115 6.121 3.062l7.903 2.505c4.007 1.28 6.9 3.061 8.626 5.343 1.725 2.283 2.56 4.899 2.56 7.794 0 2.393-.5 4.564-1.447 6.457-1.002 1.892-2.337 3.562-4.062 4.898-1.726 1.392-3.785 2.394-6.178 3.118-2.504.779-5.12 1.169-7.958 1.169z"/><g fill="#F90"><path d="M162.135 107.65c-18.368 13.472-45.054 20.624-68 20.624-32.158 0-61.133-11.81-83.018-31.436-1.731-1.553-.168-3.66 1.898-2.44 23.671 13.64 52.87 21.9 83.074 21.9 20.378 0 42.765-4.213 63.366-12.863 3.07-1.386 5.695 1.996 2.68 4.214z"/><path d="M169.784 99c-2.345-2.994-15.52-1.442-21.495-.72-1.786.22-2.065-1.331-.446-2.496 10.496-7.318 27.747-5.212 29.757-2.772 2.01 2.495-.559 19.627-10.385 27.833-1.507 1.275-2.958.61-2.289-1.054 2.234-5.489 7.202-17.853 4.858-20.791z"/></g></g></svg>