<svg xmlns="http://www.w3.org/2000/svg" width="536" height="140" viewBox="0 0 536 140"><path d="M164.615 28.786h-.043l-9.797 7.686-.735 3.873h-10.148l2.966-15.576c.7-5.877 9.645-4.099 10.976-3.766l1.43-7.506c-16.087-6.185-20.785 11.272-20.785 11.272l-2.964 15.576h-.053l-10.075 7.904h8.623L124.537 98h8.376l9.472-49.75h10.146l-3.709 19.474c-2.357 14.177 11.838 12.626 16.368 11.713l1.418-7.425c-10.836 2.447-9.409-4.29-9.409-4.29l3.71-19.475h12.917l1.505-7.903h-12.918l2.202-11.558zM98.2 40.535l-1.513 8.382c20.47-8.923 17.02 6.625 17.02 6.625l-.417 2.336s-12.001-6.162-20.402.7c0 0-4.921 3.283-4.921 9.848 0 6.564 6.015 10.092 6.015 10.092s9.046 4.775 16.13-2.856l-.783 3.552h7.922l4.977-23.628C125.968 32.272 98.2 40.535 98.2 40.535zm13.162 28.135c-8.718 8.946-14.298 3.088-14.298 3.088-3.78-3.678.397-7.461.397-7.461 5.766-5.271 14.589.52 14.589.52l-.688 3.853zm-20.255-28.3c-6.46.068-12.33 3.675-12.33 3.675l.75-3.539h-7.755l-7.074 38.781h7.923l4.797-25.513c3.544-7.206 12.309-4.967 12.309-4.967l1.38-8.437zM60.876 23.75c.4.304.78.623 1.153.95l6.013-4.72.188-.244c-.921-.93-1.91-1.81-2.982-2.62C51.451 6.697 30.6 11.06 18.678 26.86 6.757 42.66 8.28 63.913 22.08 74.336c11.268 8.507 27.233 7.159 39.202-2.224l-.01-.023-5.724-4.492c-8.868 5.706-19.873 6.115-27.834.106-10.6-8.002-11.77-24.33-2.614-36.468 9.159-12.138 25.175-15.49 35.776-7.486zM190.65 48.088c1.427-1.475 3.14-2.644 5.138-3.514 1.998-.866 4.206-1.297 6.624-1.286 2.114.01 4.033.335 5.751.978a25.176 25.176 0 0 1 4.84 2.425l1.55-2.26a25.788 25.788 0 0 0-5.562-2.701c-2.022-.704-4.21-1.063-6.567-1.072-2.781-.012-5.354.491-7.715 1.509-2.362 1.017-4.407 2.413-6.137 4.189-1.73 1.776-3.07 3.856-4.017 6.24-.947 2.384-1.426 4.936-1.439 7.66-.011 2.719.461 5.259 1.418 7.621.955 2.362 2.276 4.424 3.962 6.187 1.683 1.762 3.702 3.145 6.056 4.151 2.351 1.01 4.919 1.52 7.7 1.534 2.357.007 4.548-.331 6.577-1.016a25.598 25.598 0 0 0 5.588-2.65l-1.531-2.273a24.94 24.94 0 0 1-4.863 2.381c-1.724.628-3.644.937-5.758.929-2.418-.011-4.622-.458-6.613-1.345-1.99-.887-3.692-2.103-5.106-3.65-1.414-1.55-2.51-3.368-3.284-5.46-.777-2.088-1.16-4.31-1.15-6.669.012-2.358.414-4.564 1.208-6.616.793-2.052 1.902-3.816 3.33-5.292zm60.52-1.638c-1.623-1.73-3.552-3.097-5.782-4.105-2.233-1.008-4.678-1.517-7.336-1.53-2.66-.012-5.113.476-7.352 1.463a17.342 17.342 0 0 0-5.82 4.146c-1.64 1.776-2.935 3.858-3.88 6.241-.951 2.385-1.427 4.935-1.439 7.656-.011 2.722.43 5.28 1.325 7.672.895 2.394 2.14 4.467 3.736 6.228 1.592 1.762 3.505 3.143 5.74 4.151 2.229 1.008 4.675 1.519 7.335 1.53 2.66.013 5.125-.492 7.396-1.51 2.272-1.017 4.225-2.4 5.866-4.145 1.637-1.746 2.932-3.824 3.88-6.24.946-2.414 1.427-4.983 1.438-7.703.011-2.72-.43-5.276-1.325-7.67-.896-2.39-2.156-4.453-3.781-6.183zm.953 20.548c-.765 2.052-1.83 3.845-3.196 5.382a14.687 14.687 0 0 1-4.869 3.605c-1.877.87-3.964 1.3-6.26 1.288-2.298-.011-4.396-.456-6.296-1.34-1.9-.888-3.511-2.089-4.834-3.606-1.326-1.516-2.343-3.32-3.06-5.41-.714-2.089-1.067-4.31-1.058-6.667.01-2.359.386-4.564 1.117-6.618.734-2.05 1.785-3.83 3.152-5.337a15.012 15.012 0 0 1 4.866-3.56c1.877-.868 3.963-1.3 6.261-1.288 2.297.01 4.396.458 6.296 1.343a14.928 14.928 0 0 1 4.88 3.603c1.353 1.519 2.387 3.308 3.103 5.366.715 2.06 1.069 4.266 1.06 6.625-.01 2.355-.398 4.562-1.162 6.614zm64.647-22.796a9.711 9.711 0 0 0-3.615-2.328 12.777 12.777 0 0 0-4.301-.746c-3.142-.013-6.078.821-8.806 2.5-2.724 1.684-5.002 3.668-6.827 5.956-.65-2.905-1.941-5.055-3.87-6.456-1.928-1.4-4.157-2.104-6.694-2.115a15.036 15.036 0 0 0-4.537.66c-1.452.448-2.8 1.03-4.044 1.752a23.922 23.922 0 0 0-3.501 2.479 29.395 29.395 0 0 0-2.913 2.843l.032-7.074-2.81-.013-.166 37.639 2.9.011.12-27.479c2.064-2.286 4.294-4.212 6.69-5.774 2.391-1.562 4.98-2.336 7.758-2.324 5.923.026 8.869 3.485 8.84 10.377l-.111 25.302 2.898.015.12-27.026c1.943-2.591 4.158-4.668 6.644-6.23 2.484-1.56 5.086-2.336 7.806-2.325 5.923.027 8.869 3.486 8.842 10.38l-.113 25.304 2.9.01.113-25.573c.011-2.236-.283-4.157-.883-5.763-.595-1.604-1.421-2.937-2.473-4.002zm65.723.291a9.702 9.702 0 0 0-3.615-2.328 12.73 12.73 0 0 0-4.3-.745c-3.144-.014-6.08.82-8.807 2.5-2.726 1.683-5.002 3.667-6.826 5.956-.65-2.907-1.942-5.056-3.87-6.457-1.928-1.4-4.16-2.105-6.696-2.117a15.015 15.015 0 0 0-4.536.66 19.336 19.336 0 0 0-4.043 1.752 23.386 23.386 0 0 0-3.502 2.48 29.017 29.017 0 0 0-2.915 2.844l.032-7.075-2.809-.012-.166 37.639 2.898.011.12-27.48c2.067-2.287 4.294-4.214 6.691-5.774 2.394-1.56 4.98-2.338 7.759-2.325 5.923.027 8.87 3.486 8.842 10.378l-.112 25.304 2.899.01.117-27.024c1.945-2.593 4.16-4.666 6.647-6.228 2.484-1.562 5.087-2.338 7.806-2.324 5.923.024 8.868 3.485 8.84 10.377l-.112 25.304 2.9.013.112-25.576c.013-2.236-.282-4.159-.881-5.763-.596-1.602-1.42-2.937-2.473-4zm41.058 2.402c-1.353-1.64-3.027-2.93-5.015-3.875-1.99-.946-4.313-1.424-6.973-1.438-2.66-.013-5.064.475-7.212 1.464-2.153.988-4 2.372-5.549 4.148-1.55 1.778-2.737 3.858-3.565 6.243-.828 2.385-1.244 4.938-1.255 7.656-.015 2.722.397 5.279 1.232 7.671.836 2.393 2.065 4.467 3.69 6.228 1.623 1.765 3.67 3.146 6.147 4.154 2.472 1.008 5.34 1.522 8.605 1.535 1.932.01 3.96-.208 6.076-.652 2.116-.447 4.025-1.086 5.721-1.926l-.355-1.272c-.121-.364-.27-.785-.45-1.271a26.27 26.27 0 0 1-5.264 1.834 24.098 24.098 0 0 1-5.713.657c-2.782-.014-5.212-.445-7.293-1.302-2.082-.855-3.815-2.042-5.197-3.563-1.384-1.517-2.433-3.321-3.148-5.407-.716-2.09-1.068-4.344-1.059-6.762l30.642.135.005-1.179c.012-2.598-.327-5.02-1.011-7.26-.688-2.238-1.707-4.178-3.059-5.818zm-26.48 11.584c.193-2.054.654-3.956 1.386-5.708.733-1.75 1.705-3.258 2.922-4.522 1.212-1.263 2.668-2.254 4.365-2.973 1.694-.719 3.572-1.072 5.627-1.063 2.176.01 4.077.397 5.707 1.158 1.628.764 2.983 1.781 4.065 3.058 1.081 1.275 1.92 2.79 2.518 4.547.593 1.757.919 3.63.972 5.626l-27.562-.123zm41.92-8.159l.036-7.89-2.808-.012-.166 37.637 2.898.014.116-25.849c1.584-3.196 3.652-5.593 6.197-7.181 2.544-1.59 5.115-2.472 7.715-2.642l.013-2.902c-2.841-.013-5.475.823-7.897 2.504-2.427 1.682-4.461 3.79-6.104 6.321zm25.337-1.021c1.429-1.475 3.142-2.646 5.14-3.514 1.998-.866 4.206-1.298 6.624-1.286 2.114.007 4.033.335 5.751.978 1.72.64 3.333 1.45 4.84 2.422l1.55-2.26a25.856 25.856 0 0 0-5.56-2.699c-2.023-.703-4.21-1.063-6.57-1.072-2.78-.011-5.351.49-7.713 1.51-2.36 1.017-4.405 2.413-6.136 4.188-1.728 1.776-3.069 3.857-4.016 6.24-.947 2.387-1.427 4.936-1.438 7.658-.014 2.72.459 5.263 1.417 7.626.953 2.36 2.275 4.423 3.961 6.184 1.683 1.763 3.7 3.145 6.053 4.153 2.352 1.008 4.92 1.52 7.699 1.53 2.359.012 4.548-.329 6.577-1.011a25.732 25.732 0 0 0 5.588-2.652l-1.533-2.275a24.84 24.84 0 0 1-4.863 2.383c-1.722.628-3.644.936-5.758.927-2.416-.012-4.62-.456-6.613-1.345-1.993-.883-3.69-2.101-5.104-3.65-1.414-1.55-2.51-3.365-3.282-5.457-.78-2.088-1.16-4.312-1.15-6.67.01-2.357.414-4.562 1.208-6.616.792-2.054 1.902-3.817 3.328-5.292zm62.462 11.115c.013-2.6-.327-5.02-1.01-7.26-.686-2.24-1.705-4.179-3.056-5.818-1.354-1.638-3.027-2.93-5.014-3.877-1.99-.946-4.314-1.425-6.974-1.438-2.658-.01-5.065.479-7.21 1.466a16.313 16.313 0 0 0-5.551 4.148c-1.55 1.776-2.736 3.858-3.564 6.24-.828 2.388-1.246 4.937-1.259 7.659-.011 2.72.4 5.278 1.233 7.669.837 2.394 2.068 4.47 3.692 6.228 1.62 1.767 3.67 3.147 6.144 4.155 2.475 1.008 5.343 1.52 8.608 1.536 1.934.01 3.958-.208 6.078-.654 2.115-.445 4.025-1.084 5.718-1.928l-.355-1.27c-.121-.362-.27-.787-.448-1.272a26.419 26.419 0 0 1-5.265 1.839 24.095 24.095 0 0 1-5.713.652c-2.783-.011-5.212-.442-7.294-1.3-2.083-.856-3.815-2.044-5.197-3.562-1.384-1.517-2.431-3.321-3.148-5.41-.716-2.087-1.068-4.342-1.058-6.76l30.641.135.002-1.178zm-30.547-1.496c.191-2.054.656-3.957 1.386-5.71.735-1.75 1.705-3.258 2.92-4.522 1.216-1.263 2.67-2.254 4.366-2.973 1.696-.719 3.571-1.07 5.628-1.063 2.174.01 4.076.397 5.706 1.16 1.627.764 2.983 1.781 4.064 3.058 1.085 1.274 1.925 2.79 2.52 4.544.592 1.758.92 3.632.972 5.629l-27.562-.123z" fill="#D95947"/></svg>