<svg xmlns="http://www.w3.org/2000/svg" width="265" height="140" viewBox="0 0 265 140"><path d="M128.228 64.53c0 5.086-1.86 9.18-5.577 12.281-3.76 3.02-8.345 4.55-13.757 4.55-4.792 0-9.048-1.407-12.724-4.219-3.677-2.812-6.197-6.657-7.602-11.496l7.106-2.936c.496 1.737 1.157 3.309 2.024 4.714.868 1.406 1.86 2.606 3.016 3.598a14.138 14.138 0 0 0 3.842 2.357c1.405.58 2.892.869 4.462.869 3.387 0 6.196-.869 8.345-2.647 2.148-1.737 3.222-4.094 3.222-6.988 0-2.44-.909-4.508-2.685-6.245-1.653-1.654-4.792-3.308-9.378-4.88-4.627-1.653-7.519-2.811-8.676-3.39-6.155-3.143-9.212-7.733-9.212-13.853 0-4.26 1.694-7.898 5.081-10.917 3.47-3.019 7.684-4.549 12.724-4.549 4.42 0 8.263 1.117 11.485 3.391 3.222 2.233 5.412 5.004 6.486 8.353l-6.9 2.854c-.66-2.15-1.94-3.97-3.841-5.376-1.9-1.447-4.255-2.15-6.982-2.15-2.933 0-5.37.827-7.353 2.44-1.983 1.488-2.975 3.473-2.975 5.871 0 1.985.785 3.722 2.355 5.17 1.735 1.447 5.494 3.183 11.237 5.168 5.866 1.985 10.08 4.466 12.6 7.361 2.437 2.895 3.677 6.45 3.677 10.669zm41.27 15.507h-7.106v-5.5h-.33c-1.115 1.944-2.892 3.556-5.205 4.88-2.355 1.281-4.792 1.943-7.313 1.943-4.874 0-8.592-1.406-11.195-4.176-2.603-2.771-3.925-6.74-3.925-11.868V40.339h7.437v24.48c.165 6.493 3.428 9.718 9.79 9.718 2.975 0 5.454-1.2 7.437-3.598 1.982-2.398 2.974-5.293 2.974-8.642V40.339h7.436v39.698zm16.979-53.386c0 1.448-.496 2.688-1.528 3.722-1.033 1.034-2.272 1.53-3.718 1.53-1.446 0-2.686-.496-3.718-1.53-1.033-1.034-1.529-2.274-1.529-3.722 0-1.447.496-2.687 1.529-3.721 1.032-1.034 2.272-1.53 3.718-1.53 1.446 0 2.685.496 3.718 1.53 1.032 1.034 1.528 2.274 1.528 3.721zM184.95 40.34v39.698h-7.436V40.339h7.436zm22.844 40.358c-3.222 0-5.908-.992-8.056-2.977-2.148-1.985-3.222-4.797-3.263-8.353V47.162h-6.982v-6.823h6.94V28.18h7.436v12.16h9.709v6.823h-9.709v19.766c0 2.647.496 4.425 1.529 5.376 1.033.951 2.19 1.406 3.47 1.406a8.28 8.28 0 0 0 1.735-.207c.579-.124 1.074-.33 1.57-.537l2.355 6.657c-1.86.703-4.131 1.075-6.734 1.075zm27.844.621c-5.825 0-10.617-1.985-14.418-5.996-3.759-4.011-5.66-9.056-5.66-15.135 0-6.038 1.818-11.082 5.495-15.094 3.677-4.01 8.345-6.037 14.087-6.037 5.867 0 10.576 1.902 14.046 5.707 3.47 3.804 5.206 9.138 5.206 16.003l-.083.827h-31.149c.124 3.887 1.405 7.03 3.883 9.387 2.479 2.357 5.453 3.556 8.924 3.556 4.75 0 8.469-2.357 11.154-7.113l6.651 3.226c-1.776 3.35-4.255 5.955-7.395 7.857-3.18 1.86-6.775 2.812-10.74 2.812zM223.74 55.39h22.763c-.206-2.77-1.322-5.045-3.346-6.864-2.024-1.82-4.75-2.73-8.139-2.73-2.809 0-5.205.869-7.23 2.606-2.065 1.778-3.387 4.093-4.048 6.988zM54.982 37.9c-1.9-1.944-3.966-3.433-6.156-4.467-2.19-1.034-4.957-1.53-8.138-1.53-2.561 0-4.999.455-7.27 1.365-2.273.91-4.256 2.191-5.95 3.845-1.735 1.655-3.098 3.68-4.09 6.038-.991 2.357-1.487 4.962-1.487 7.857 0 2.894.496 5.5 1.487 7.857.992 2.357 2.355 4.342 4.09 5.996a18.896 18.896 0 0 0 6.032 3.887c2.272.91 4.75 1.364 7.353 1.364 2.768 0 5.206-.372 7.271-1.158 2.066-.785 3.842-1.86 5.33-3.184.99-.91 1.9-2.026 2.685-3.35a19.122 19.122 0 0 0 1.859-4.506H40.523v-9.925h28.505c.165.662.29 1.447.413 2.44.124.992.165 1.902.165 2.853 0 3.929-.578 7.485-1.735 10.752-1.157 3.266-2.933 6.12-5.246 8.642-2.603 2.77-5.701 4.88-9.337 6.41-3.635 1.53-7.808 2.274-12.476 2.274-4.214 0-8.18-.744-11.898-2.274s-6.981-3.64-9.79-6.327c-2.769-2.688-4.958-5.872-6.61-9.552-1.653-3.68-2.438-7.775-2.438-12.158 0-4.383.826-8.436 2.437-12.157 1.612-3.722 3.801-6.906 6.61-9.594 2.768-2.688 6.032-4.756 9.791-6.286 3.76-1.53 7.725-2.274 11.898-2.274 4.792 0 9.047.827 12.724 2.481 3.677 1.654 6.858 3.929 9.543 6.823L54.982 37.9z" fill="#737373"/></svg>