<svg xmlns="http://www.w3.org/2000/svg" width="225" height="70" viewBox="0 0 225 70"><g fill="none" fill-rule="evenodd"><path fill="#005B82" d="M0 0h225v70H0z"/><path d="M65.91 23.334v12.895c-.007 2.993-2.466 5.458-5.444 5.463l-10.47.003V25.387h-3.918v16.308h-10.47c-2.977-.008-5.434-2.473-5.442-5.466V23.334h-3.913l-.003 12.895c.008 5.183 4.197 9.387 9.359 9.395h24.857c5.159-.008 9.352-4.212 9.36-9.395V23.334H65.91zm109 3.93h23.042v-3.93h-23.041c-4.146.006-7.505 3.378-7.513 7.536v7.218c.008 4.158 3.367 7.529 7.513 7.537h23.041v-3.93h-23.041c-1.965-.005-3.594-1.635-3.595-3.607v-1.644h23.269v-3.93h-23.27V30.87c.002-1.97 1.631-3.601 3.596-3.606m-70.703-3.93v9.18H82.885v-9.18h-3.914v22.29h3.914v-9.18h21.323v9.18h3.918v-22.29zm56.067 0h-29.153v3.93h12.62v18.36h3.915v-18.36h12.618zm-41.425 22.29h3.92v-22.29h-3.92z" fill="#FFF"/></g></svg>