<svg xmlns="http://www.w3.org/2000/svg" width="225" height="90" viewBox="0 0 225 90"><g fill="none" fill-rule="evenodd"><path fill="#005B82" d="M0 0h225v90H0z"/><g fill="#FFF"><path d="M65.91 23.25V36.1c-.007 2.982-2.466 5.438-5.444 5.443l-10.47.003v-16.25h-3.918v16.25h-10.47c-2.977-.008-5.434-2.464-5.442-5.446V23.25h-3.913L26.25 36.1c.008 5.164 4.197 9.353 9.359 9.36h24.857c5.159-.007 9.352-4.196 9.36-9.36V23.25H65.91zm109 3.916h23.042V23.25h-23.041a7.526 7.526 0 0 0-7.513 7.51v7.192a7.527 7.527 0 0 0 7.513 7.51h23.041v-3.916h-23.041c-1.965-.004-3.594-1.63-3.595-3.594v-1.638h23.269v-3.916h-23.27V30.76c.002-1.964 1.631-3.589 3.596-3.594m-70.703-3.916v9.147H82.885v-9.146h-3.914v22.21h3.914v-9.148h21.323v9.148h3.918V23.25zm56.067 0h-29.153v3.917h12.62V45.46h3.915V27.167h12.618zM118.85 45.461h3.92v-22.21h-3.92zM26.25 65.946h.97V56.71h-.97zm6.56-9.236h1.15l6.458 7.89h.026v-7.89h.956l.013 9.236H40.3l-6.506-7.892h-.025l.012 7.892h-.956zm16.847.877h-3.608v-.878h8.189v.878h-3.624l.012 8.36h-.956zm9.299-.877h7.35v.877h-6.392v3.132h6.158v.88h-6.158v3.468h6.495l.014.88H58.97zm13.392 4.293h4.05c.257 0 .51-.028.751-.083.24-.057.453-.153.639-.286.187-.133.334-.317.442-.549.106-.233.162-.527.162-.88 0-.335-.06-.61-.178-.821a1.333 1.333 0 0 0-.445-.491 1.628 1.628 0 0 0-.615-.24 3.544 3.544 0 0 0-.665-.066h-4.14v3.416zm-.957-4.294h5.034c.388 0 .764.038 1.123.116.364.077.685.21.965.4a2 2 0 0 1 .665.77c.165.324.248.729.248 1.21 0 .25-.038.494-.116.731a2.213 2.213 0 0 1-.913 1.176 2.357 2.357 0 0 1-.782.33v.027c.327.053.594.142.802.273.207.127.369.301.485.517.114.215.2.472.251.763.052.293.087.629.106 1.01.007.146.018.318.03.516.013.199.034.393.06.583.025.188.056.36.098.51.038.152.087.252.146.305H78.56c-.094-.095-.159-.305-.196-.63a15.635 15.635 0 0 1-.063-1.26 3.81 3.81 0 0 0-.142-1.028 1.54 1.54 0 0 0-.397-.674 1.51 1.51 0 0 0-.683-.36c-.28-.075-.62-.11-1.017-.11h-3.713l.013 4.062h-.957l-.013-9.237zm13.32.001h1.152l6.455 7.89h.026v-7.89h.956l.014 9.236h-1.112l-6.509-7.892h-.025l.012 7.892h-.956zm14.222 0h7.348v.877h-6.39v3.132h6.158v.88h-6.158v3.468h6.496l.013.88h-7.453zm15.427.877h-3.614v-.878h8.192v.878h-3.621l.012 8.36h-.959zm10.176 7.479h4.023c.31 0 .597-.031.861-.096.262-.064.491-.17.685-.312.195-.143.346-.324.46-.544.113-.22.167-.488.167-.808 0-.336-.049-.614-.149-.834a1.279 1.279 0 0 0-.407-.524 1.548 1.548 0 0 0-.615-.271 3.537 3.537 0 0 0-.769-.08h-4.256v3.47zm0-4.348h3.789c.648 0 1.162-.12 1.548-.362.383-.242.576-.669.576-1.281 0-.561-.17-.948-.507-1.165-.333-.216-.767-.323-1.293-.323h-4.113v3.131zm-.96-4.01h5.256c.447 0 .835.06 1.162.181.33.121.597.285.802.491.208.207.36.455.461.739.1.283.149.589.149.918 0 .449-.129.858-.383 1.228-.253.372-.656.62-1.209.752v.025c.622.095 1.103.348 1.443.757.339.409.511.913.511 1.507 0 .483-.092.894-.278 1.23a2.439 2.439 0 0 1-.712.815 2.967 2.967 0 0 1-.977.453 4.23 4.23 0 0 1-1.075.142h-5.136l-.014-9.237zm21.582 5.667c0 .421-.044.859-.13 1.306-.086.45-.275.86-.562 1.23-.29.37-.706.674-1.25.913-.543.237-1.273.355-2.187.355-.915 0-1.643-.118-2.185-.355-.546-.239-.96-.543-1.25-.913a2.88 2.88 0 0 1-.564-1.23 7.079 7.079 0 0 1-.129-1.306v-5.666h.958v5.666c0 .604.092 1.096.272 1.475.18.379.419.678.713.894.293.213.63.36 1.008.44a5.959 5.959 0 0 0 2.348 0c.383-.08.723-.227 1.015-.44.294-.216.53-.515.713-.894.18-.38.272-.87.272-1.475v-5.666h.958v5.666zm6.584-1.372h4.05c.26 0 .51-.028.75-.083.243-.057.456-.153.642-.286.184-.133.332-.317.44-.549.108-.233.162-.527.162-.88 0-.335-.06-.61-.176-.821a1.317 1.317 0 0 0-.447-.491 1.628 1.628 0 0 0-.615-.24 3.544 3.544 0 0 0-.665-.066h-4.141v3.416zm-.958-4.294h5.034c.389 0 .764.038 1.126.116.364.077.682.21.963.4.282.188.503.448.668.77.162.324.245.729.245 1.21 0 .25-.039.494-.116.731a2.205 2.205 0 0 1-.343.655 2.385 2.385 0 0 1-1.353.852v.026c.327.053.595.142.803.273.207.127.369.301.487.517.115.215.198.472.252.763.051.293.084.629.102 1.01l.03.516c.014.199.035.393.06.583.026.188.06.36.099.51.038.152.087.252.148.305h-1.036c-.095-.095-.16-.305-.194-.63a14.34 14.34 0 0 1-.066-1.26 3.709 3.709 0 0 0-.142-1.028 1.535 1.535 0 0 0-.394-.674 1.534 1.534 0 0 0-.686-.36 3.99 3.99 0 0 0-1.016-.11h-3.713l.013 4.062h-.958l-.013-9.237zm13.4.001h7.35v.877h-6.39v3.132h6.156v.88h-6.156v3.468h6.493l.013.88h-7.453zm16.568.955l-2.057 4.594h4.089l-2.032-4.594zm2.42 5.473h-4.863l-1.243 2.808h-1.036l4.18-9.237h1.114l4.204 9.237h-1.114l-1.242-2.808zm14.78-.763c0 .421-.043.859-.129 1.306-.087.45-.275.86-.562 1.23-.291.37-.707.674-1.251.913-.543.237-1.272.355-2.186.355-.915 0-1.643-.118-2.186-.355-.545-.239-.959-.543-1.25-.913a2.88 2.88 0 0 1-.563-1.23 7.079 7.079 0 0 1-.13-1.306v-5.666h.958v5.666c0 .604.092 1.096.273 1.475.18.379.418.678.712.894.294.213.63.36 1.009.44a5.959 5.959 0 0 0 2.348 0c.383-.08.722-.227 1.015-.44.293-.216.53-.515.712-.894.18-.38.27-.87.27-1.475v-5.666h.96v5.666z"/></g></g></svg>