<svg xmlns="http://www.w3.org/2000/svg" xmlns:xlink="http://www.w3.org/1999/xlink" width="398" height="140" viewBox="0 0 398 140"><defs><path id="a" d="M112.602.006H.082V45.05h112.52z"/></defs><g fill="none" fill-rule="evenodd"><path fill="#0A0A08" fill-rule="nonzero" d="M116.956 54.383v-.004.004M364.004 68.26l-.06-.106-.115-.369.053-.112c3.662-7.536 7.856-11.859 11.507-11.859h.036c4.12.032 6.973 3.737 6.93 9.01-.025 3.521-1.578 5.548-2.874 6.627-1.478 1.233-3.45 1.939-5.405 1.939-4.825-.037-8.136-2.81-10.072-5.13zm-.999 28.459c-.588.783-1.41 1.18-2.436 1.18-1.18-.009-2.066-.421-2.669-1.225-1.687-2.256-1.211-7.556 1.542-17.181a85.139 85.139 0 0 1 1.064-3.436l.32-.96.283.972c3.21 11.108 3.849 18.056 1.896 20.65zM244.994 45.548c.108-2.4.309-4.735.597-6.943 1.858-14.233 5.74-24.174 9.441-24.174h.017c1.763.013 2.647 1.347 2.627 3.963-.049 6.426-4.123 15.626-12.108 27.345l-.624.918.05-1.11zm129.498 32.466h.13c7.77 0 13.24-5.379 13.3-13.081.028-3.813-1.072-7.303-3.104-9.826-2.148-2.67-5.153-4.094-8.694-4.121h-.073c-4.777 0-9.214 3.624-13.564 11.08l-.348.593-.22-.65a349.507 349.507 0 0 0-2.663-7.448c-.408-1.112-.592-1.61-.634-1.771-.207-.808-.897-1.308-1.803-1.308-.555 0-1.146.188-1.706.543-.552.352-.863.784-.974 1.359l-.028.085c-4.352 13.57-7.944 20.161-10.983 20.162-.441-.004-.79-.15-1.047-.435-.795-.88-.6-2.974-.331-5.871.201-2.127.425-4.537.331-7.094-.178-4.914-2.87-7.867-7.196-7.9-5.499-.001-9.061 5.85-10.703 9.338l-.49 1.041-.107-1.145c-.41-4.318-1.86-9.473-6.438-9.508-5.337 0-9.403 6.262-11.885 11.516l-.665 1.408.065-1.555c.297-7.01.54-11.145.721-12.293.182-1.151.085-1.925-.291-2.366-.357-.416-1.03-.569-2.018-.506-1.709.108-2.583 1.147-3.897 4.632-2.162 5.724-7.659 19.038-12.049 19.038-.87-.006-1.56-.303-2.064-.881-1.842-2.11-1.106-7.811-.086-15.702l.076-.596c.482-3.736-.34-4.533-2.369-4.907a3.42 3.42 0 0 0-.617-.06c-1.621 0-2.38 1.551-3.894 5.863-2.695 7.675-6.159 15.747-10.213 15.747-.148 0-.295-.012-.443-.037-2.148-.364-2.1-3.55-2.041-7.582.032-2.181.068-4.653-.269-6.886-.605-4.005-2.967-6.508-6.163-6.533-6.382 0-10.685 8.167-12.687 13.035l-.453 1.102-.15-1.182c-.27-2.11-.623-5.457-.777-9.414l-.004-.116.072-.092c11.943-15.024 17.3-25.866 17.372-35.155.046-5.935-2.694-9.5-7.328-9.535-3.387 0-11.445 2.82-14.244 28.95-.52 4.844-.805 9.812-.848 14.765v.096l-.056.08c-5.462 7.903-17.123 21.498-28.54 21.498-10.315 0-18.544-8.339-18.544-23.062 0-19.736 13.978-31.853 24.496-31.853h.087c2.286.018 4.246.656 5.669 1.846 1.477 1.235 2.25 2.967 2.233 5.007-.02 2.725-.907 4.125-1.766 5.478-.22.348-.44.695-.641 1.061-.203.37-.388.907-.119 1.368.277.47.983.766 1.843.773 2.505 0 6.29-3.622 6.333-9.08.043-5.713-4.772-11.6-13.362-11.6-13 0-30.505 14.274-30.505 37.405 0 16.363 10.264 27.672 24.17 27.672 9.868 0 19.629-7.06 28.272-18.854l.53-.716.038.89c.183 4.315.497 7.718.726 10.203.148 1.597.255 2.75.25 3.386-.011 1.396.217 2.363.698 2.957.48.595 1.245.877 2.403.885 1.942 0 2.33-1.324 3.099-4.585l.221-.932c.955-3.955 4.484-16.862 9.792-16.862.867.007 1.535.265 2.01.768 1.173 1.243 1.045 3.793.896 6.746-.093 1.843-.189 3.747-.004 5.602.5 5.005 2.663 7.453 6.613 7.483 4.057.001 8.288-4.365 10.52-8.422l.423-.767.163.86c.413 2.17 2.257 9.3 8.029 9.3 5.232 0 9.719-5.508 14.64-16.838l.642-1.481-.04 1.614c-.104 4.294-.336 9.538-.339 13.592 0 3.135.317 4.332 1.766 4.332.102 0 .212.016.328.016 1.393 0 2.338-.832 2.808-2.472 3.701-12.894 6.899-18.9 10.068-18.9 3.105.024 3.396 5.696 3.645 15.719l.017.701c.077 3.506.201 5.057 2.38 5.074 1.653 0 2.066-1.297 2.92-4.493.162-.612.343-1.28.55-2 2.988-10.365 5.467-14.593 8.551-14.593 2.64.021 2.788 2.742 2.836 3.636.102 1.915-.096 3.918-.286 5.855-.178 1.798-.36 3.657-.291 5.39.16 4.053 2.382 6.301 6.254 6.331 5.025 0 9.559-5.871 13.532-17.452l.274-.807.315.794c.721 1.817 1.66 4.282 2.53 7.222l.033.112-.048.106c-3.845 8.535-6.56 18.043-6.599 23.12-.05 6.692 2.98 11.04 7.717 11.075l.082.001c2.578 0 8.589-1.034 8.705-10.608.045-3.924-.88-9.473-2.756-16.493l-.215-.803.693.46c2.394 1.587 5.09 2.437 7.805 2.458zM376.286 56.333v-.005.005M121.99 58.561c-1.693 6.802-4.94 15.007-10.796 15.476-.164.013-.323.02-.477.02-2.428 0-3.79-1.586-4.048-4.715-.321-3.917 1.37-8.505 4.311-11.69 1.872-2.027 3.984-3.144 5.944-3.144h.04c2.477.02 4.212 2.003 5.01 3.853l.042.097-.026.103zm53.693-38.024l.083-.002c.552 0 1.037.277 1.442.823 1.921 2.592 1.95 12.052-1.355 22.816-1.889 6.152-4.428 11.963-7.343 16.805l-.465.771-.118-.893c-.343-2.602-.512-5.312-.632-7.62-.843-16.27 4.09-32.477 8.388-32.7zm-44.59 56.424c5.657-.454 10.147-8.13 11.814-11.41l.43-.847.162.935c.8 4.615 3.315 12.368 11.185 12.427l.065.001c3.404 0 7.266-2.076 11.168-6.006l.287-.288.208.348c2.627 4.384 6.152 6.713 9.903 6.521 5.525-.285 8.877-4.193 9.172-6.904.076-.692-.108-1.341-.503-1.782-.497-.553-1.219-.616-1.75-.11l-.25.238c-1.288 1.233-3.684 3.528-6.294 3.663-3.196.158-5.56-1.75-7.088-5.685l-.064-.165.108-.14c8.789-11.472 14.958-28.975 14.35-40.714-.281-5.434-1.865-11.911-7.812-11.911-.146 0-.293.003-.444.011-2.278.118-4.35 1.2-6.158 3.22-5.518 6.158-8.406 21.32-7.357 38.627.217 3.595.843 6.954 1.86 9.984l.056.169-.116.135c-3.261 3.804-6.48 5.9-9.061 5.9-6.214 0-6.004-10.394-5.513-19.016.106-1.858.264-3.042-.288-3.715-.394-.482-1.053-.72-2.013-.727l-.112-.001c-2.21 0-2.672.453-3.805 3.727-2.353 6.803-6.999 18.216-11.672 18.216-1.295-.01-2.284-.452-2.96-1.313-2.267-2.888-.546-10.088.837-15.875.248-1.04.487-2.04.691-2.963.303-1.372.21-2.374-.277-2.979-.486-.603-1.459-.85-2.744-.747-2.001.16-3.28.995-3.899 4.793l-.124.79-.465-.562c-.874-1.287-2.579-2.822-5.741-2.822-.278 0-.565.01-.86.035-3.377.277-7.221 2.623-10.034 6.125-3.285 4.09-4.854 9.266-4.417 14.574.023.28.064.55.104.819l.023.148-.102.112c-1.965 2.136-3.968 3.22-5.951 3.22-3.062-.024-4.819-2.295-4.819-6.077 0-6.366 4.324-25.557 4.324-32.504 0-7.393-3.302-11.42-9.036-11.463h-.086c-8.372 0-14.899 9.48-21.142 28.981a321.135 321.135 0 0 0-1.728 5.634l-.876 2.932.26-3.049c.58-6.793.978-13.403 1.184-19.646.31-9.426-.966-15.491-3.904-18.544-1.585-1.647-3.682-2.457-6.412-2.478h-.073c-10.245 0-15.153 17.24-18.726 29.406-1.079 3.671-3.206 11.954-4.625 17.617l.84-1.364c.632-7.13 2.457-24.991 2.337-34.68-.128-10.396-3.597-15.057-11.25-15.115h-.093c-4.087 0-6.923 2.027-8.583 3.728-2.662 2.728-4.323 6.717-4.23 10.161.056 2.094 1.344 3.957 2.32 3.957.636 0 .988-.846 1.14-1.35 2.368-7.809 5.43-11.605 9.364-11.605 1.631.013 2.844.492 3.753 1.465 3.072 3.289 2.513 12.167 1.5 28.286-.327 5.195-.697 11.08-1.01 17.776a188.732 188.732 0 0 1-.193 3.313c-.3 4.65-.536 8.324 1.231 8.597 2.3.357 3.797-.574 4.562-2.845 1.136-3.37 3.684-12.58 8.613-29.41 4.73-16.15 8.303-22.027 12.875-22.027 5.281 0 5.675 9.05 4.707 28.144-.206 4.047-.482 8.633-.694 13.623-.03.7-.063 1.38-.096 2.035-.203 4.13-.363 7.393.82 8.642.368.389.87.581 1.534.586 2.29 0 2.978-2.004 4.118-5.323.202-.587.416-1.212.655-1.868 7.846-21.594 13.646-40.329 21.432-40.329 2.336 0 4.152 1.893 4.152 5.584 0 8.52-4.175 24.986-4.175 33.332 0 2.99.863 5.676 2.493 7.562 1.673 1.936 4.013 2.97 6.768 2.992h.06c2.605 0 5.32-1.264 8.07-3.754l.257-.233.208.278c1.81 2.43 4.732 3.735 7.887 3.492 4.839-.376 8.9-4.676 10.41-8.728l.295-.794.295.794c1.12 3.008 3.549 6.634 8.738 6.213z"/><path fill="#0A0A08" fill-rule="nonzero" d="M255.138 14.404v-.002.002M148.831 33.85c-2.097 0-3.792 1.618-3.807 3.606-.017 2.002 1.666 3.644 3.75 3.66l.03.298v-.298c2.067 0 3.76-1.616 3.776-3.604.016-2.003-1.666-3.646-3.749-3.661"/><g transform="translate(281.047 33.85)"><mask id="b" fill="#fff"><use xlink:href="#a"/></mask><path fill="#0A0A08" fill-rule="nonzero" d="M4.01.006C1.846.006.098 1.686.083 3.751.066 5.831 1.8 7.537 3.95 7.553l.03.31v-.31c2.134 0 3.881-1.679 3.897-3.743C7.894 1.73 6.16.023 4.01.006" mask="url(#b)"/></g></g></svg>