<svg xmlns="http://www.w3.org/2000/svg" width="545" height="140" viewBox="0 0 545 140"><path d="M198.75 60.728c0-10.406-7.522-19.31-18.863-19.31s-19.095 9.02-19.095 19.31c0 10.175 7.522 19.078 18.864 19.078 4.744 0 8.448-1.387 11.804-4.047l4.976 4.51 2.777-3.122-4.976-4.047c2.893-3.469 4.514-7.862 4.514-12.372zm-7.522 9.597l-6.828-6.128-2.777 3.122 6.828 5.897c-2.315 1.618-5.208 2.775-8.448 2.775-8.448 0-14.582-6.822-14.582-15.378 0-8.441 6.134-15.379 14.582-15.379s14.581 6.822 14.581 15.379c0 3.815-1.157 7.168-3.356 9.712zm42.703-6.822c0 7.978-4.281 12.256-11.34 12.256-7.06 0-11.342-4.509-11.342-12.487V41.766h-4.282v21.737c0 10.638 6.365 16.072 15.623 16.072s15.623-5.666 15.623-16.534V41.766h-4.282v21.737zm251.706 12.488c-8.216 0-14.35-6.822-14.35-15.379 0-8.44 6.134-15.378 14.35-15.378 4.977 0 8.449 2.082 11.805 5.203l2.777-3.121c-3.819-3.585-7.754-5.897-14.582-5.897-10.878 0-18.863 8.672-18.863 19.31 0 10.637 7.985 19.077 18.632 19.077 6.828 0 11.11-2.544 14.929-6.59l-2.778-2.544c-3.356 3.237-6.712 5.319-11.92 5.319zm26.502-.694v-12.95h20.252V58.53H512.14V45.813h22.682v-3.816h-26.964v37.347h27.196v-4.047H512.14zM410.762 42.113h-13.887v37.23h4.282v-13.18h9.027c7.985 0 14.581-4.279 14.581-12.257 0-7.4-5.44-11.794-14.003-11.794zm9.721 12.024c0 4.972-4.05 8.21-10.184 8.21h-9.258V46.044h9.49c5.902-.231 9.952 2.66 9.952 8.094zM141.93 58.532c-8.217-1.618-10.184-3.815-10.184-7.284 0-3.353 3.124-5.897 7.985-5.897 3.819 0 7.29 1.156 10.878 4.047l2.315-3.353c-3.82-3.122-7.523-4.51-12.962-4.51-7.06 0-12.267 4.279-12.267 10.175 0 6.129 4.05 9.02 12.499 10.87 7.753 1.618 9.72 3.584 9.72 7.052 0 3.816-3.355 6.36-8.216 6.36-5.208 0-9.027-1.62-12.73-5.203l-2.546 3.121c4.514 4.047 9.258 5.897 15.16 5.897 7.291 0 12.73-4.278 12.73-10.637-.347-5.897-4.166-8.672-12.382-10.638zm189.56 3.816h20.252V58.53H331.49V45.813h22.683v-3.816h-26.965v37.347h27.196v-4.047H331.49v-12.95zm44.902-3.816c-8.216-1.618-10.184-3.815-10.184-7.284 0-3.353 3.125-5.897 7.985-5.897 3.82 0 7.291 1.156 10.879 4.047l2.314-3.353c-3.819-3.122-7.522-4.51-12.961-4.51-7.06 0-12.267 4.279-12.267 10.175 0 6.129 4.05 9.02 12.498 10.87 7.754 1.618 9.721 3.584 9.721 7.052 0 3.816-3.356 6.36-8.216 6.36-5.208 0-9.027-1.62-12.73-5.203l-2.546 3.121c4.513 4.047 9.258 5.897 15.16 5.897 7.29 0 12.73-4.278 12.73-10.637-.347-5.897-4.166-8.672-12.383-10.638zm-115.727-16.65l-17.011 37.463h4.281l4.514-9.944H272.7l4.282 9.944h4.513L264.483 41.88h-3.819zM254.068 65.7l8.448-18.847 8.448 18.847h-16.896zm188.403-23.819L425.46 79.344h4.282l4.514-9.944h20.252l4.282 9.944h4.513L446.29 41.88h-3.819zM435.875 65.7l8.448-18.847 8.448 18.847h-16.896zM318.296 53.212c0-3.121-1.157-5.665-2.777-7.515-2.315-2.313-5.902-3.816-10.647-3.816h-16.086v37.231h4.282V64.775h10.647l10.878 14.337h5.208L308.46 63.967c5.554-1.157 9.836-4.625 9.836-10.753zm-25.344 7.747V45.812h11.573c5.902 0 9.49 2.776 9.49 7.285 0 4.74-4.05 7.515-9.722 7.515h-11.34v.347zM25.044 65.237c1.62 1.62 4.514 1.62 6.365 0l28.122-28.096c3.588-3.585 9.027-3.585 12.499 0 1.62 1.618 4.513 1.618 6.365 0 1.62-1.62 1.62-4.51 0-6.36-6.828-6.822-18.17-6.822-24.997 0L25.044 58.763c-1.851 1.965-1.851 4.509 0 6.474zm43.63-18.962c1.62-1.619 1.62-4.51 0-6.36-1.62-1.618-4.514-1.618-6.365 0l-28.006 28.33c-3.588 3.584-9.027 3.584-12.499 0-3.587-3.585-3.587-9.019 0-12.488l27.659-27.634c-3.588-3.584-9.027-3.584-12.499 0L15.671 49.397c-6.828 6.822-6.828 18.153 0 24.975 6.828 6.822 18.169 6.822 24.997 0l28.006-28.097zm3.356 3.122L43.677 77.725c-1.62 1.619-1.62 4.51 0 6.36 1.62 1.618 4.513 1.618 6.364 0l28.122-28.098c3.588-3.584 9.027-3.584 12.499 0 3.471 3.585 3.587 9.02 0 12.488l-27.66 27.403c3.588 3.584 9.028 3.584 12.5 0l21.525-21.506c6.827-6.822 6.827-18.153 0-24.975-7.06-6.822-18.17-6.822-24.997 0zm15.623 9.366c-1.62-1.62-4.514-1.62-6.365 0L53.166 87.09c-3.587 3.584-9.027 3.584-12.498 0-1.62-1.62-4.514-1.62-6.365 0-1.62 1.618-1.62 4.509 0 6.359 6.828 6.822 18.169 6.822 24.997 0l28.12-28.096c1.852-2.081 1.852-4.625.232-6.59z"/></svg>