<svg xmlns="http://www.w3.org/2000/svg" width="239" height="140" viewBox="0 0 239 140"><g fill="none"><path fill="#000" d="M56 34H10v9.2h18.4V80h9.2V43.2H56"/><path fill="#F00" d="M182.96 52.4h46v9.2h-46v-9.2zm0-18.4h46v9.2h-46V34zm0 36.8h46V80h-46v-9.2z"/><path fill="#000" d="M171 57c0 12.708-10.174 23-22.73 23-12.555 0-22.729-10.292-22.729-23V34h9.092v23c0 7.62 6.107 13.8 13.638 13.8 7.537 0 13.643-6.18 13.643-13.8V34H171v23zm-57.278 23l-13.95-18.4c7.54 0 13.647-6.176 13.647-13.8 0-7.615-6.11-13.8-13.65-13.8H67.96v46h9.092V61.6h11.261l13.95 18.4h11.459zm-36.67-27.594v-9.2h22.723c2.522 0 4.546 2.055 4.546 4.6 0 2.545-2.024 4.594-4.54 4.594h-22.73v.006z"/></g></svg>